<?xml version="1.0" standalone="no"?>
<!DOCTYPE svg PUBLIC "-//W3C//DTD SVG 20010904//EN"
 "http://www.w3.org/TR/2001/REC-SVG-20010904/DTD/svg10.dtd">
<svg version="1.0" xmlns="http://www.w3.org/2000/svg"
 width="316.000000pt" height="160.000000pt" viewBox="0 0 316.000000 160.000000"
 preserveAspectRatio="xMidYMid meet">

<g transform="translate(0.000000,160.000000) scale(0.100000,-0.100000)"
fill="#000000" stroke="none">
<path d="M510 1095 c-76 -25 -134 -76 -170 -148 -27 -55 -31 -74 -31 -142 0
-63 5 -87 26 -131 64 -130 215 -195 361 -155 60 16 81 34 278 229 100 100 195
186 210 192 105 39 214 -39 203 -147 -6 -58 -30 -91 -84 -115 -66 -29 -112
-18 -180 44 l-56 50 -56 -56 -56 -57 55 -49 c87 -78 129 -95 235 -95 76 0 97
4 139 25 178 91 214 344 69 481 -66 64 -117 84 -208 84 -123 -1 -147 -16 -370
-236 -219 -215 -239 -227 -322 -193 -57 23 -84 58 -90 115 -11 114 108 195
210 142 18 -9 49 -35 69 -57 l36 -41 56 54 55 54 -44 52 c-82 95 -222 137
-335 100z"/>
<path d="M1777 1043 c-4 -3 -7 -66 -7 -140 0 -112 2 -133 15 -133 13 0 15 22
15 140 0 128 -4 152 -23 133z"/>
<path d="M2106 1028 c-9 -12 -16 -33 -16 -45 0 -13 -4 -23 -10 -23 -5 0 -10
-7 -10 -15 0 -8 5 -15 10 -15 6 0 10 -33 10 -80 0 -64 3 -80 15 -80 12 0 15
16 15 80 0 73 2 80 20 80 11 0 20 7 20 15 0 8 -9 15 -20 15 -16 0 -20 7 -20
30 0 23 4 30 20 30 11 0 20 7 20 15 0 23 -37 18 -54 -7z"/>
<path d="M2202 1033 c5 -25 28 -28 28 -4 0 12 -6 21 -16 21 -9 0 -14 -7 -12
-17z"/>
<path d="M2510 1029 c0 -24 23 -21 28 4 2 10 -3 17 -12 17 -10 0 -16 -9 -16
-21z"/>
<path d="M2600 985 c0 -14 -4 -25 -10 -25 -5 0 -10 -7 -10 -15 0 -8 5 -15 10
-15 6 0 10 -28 10 -63 0 -67 17 -97 53 -97 24 0 21 17 -3 25 -17 5 -20 15 -20
71 0 57 2 64 20 64 11 0 20 7 20 15 0 8 -9 15 -20 15 -15 0 -20 7 -20 25 0 16
-6 25 -15 25 -9 0 -15 -9 -15 -25z"/>
<path d="M1870 865 c0 -110 16 -128 22 -24 4 73 13 89 54 89 34 0 44 -20 44
-92 0 -54 3 -68 15 -68 12 0 15 13 15 59 0 74 -12 108 -45 123 -19 9 -31 8
-52 -1 -19 -9 -29 -9 -31 -2 -2 6 -8 11 -13 11 -5 0 -9 -43 -9 -95z"/>
<path d="M2200 865 c0 -78 3 -95 15 -95 12 0 15 17 15 95 0 78 -3 95 -15 95
-12 0 -15 -17 -15 -95z"/>
<path d="M2290 865 c0 -78 3 -95 15 -95 12 0 15 14 15 68 0 73 10 92 46 92 35
0 54 -36 54 -102 0 -32 4 -58 10 -58 6 0 10 32 10 75 0 62 -4 79 -20 95 -22
22 -37 24 -74 10 -17 -6 -26 -6 -26 0 0 6 -7 10 -15 10 -12 0 -15 -17 -15 -95z"/>
<path d="M2510 865 c0 -78 3 -95 15 -95 12 0 15 17 15 95 0 78 -3 95 -15 95
-12 0 -15 -17 -15 -95z"/>
<path d="M2690 951 c0 -4 14 -41 30 -81 37 -89 37 -114 5 -146 -31 -31 -31
-36 -2 -32 26 4 42 33 91 171 27 73 32 97 22 97 -9 0 -23 -26 -36 -65 -12 -36
-25 -67 -30 -70 -5 -3 -19 26 -31 65 -13 39 -29 70 -36 70 -7 0 -13 -4 -13 -9z"/>
<path d="M2105 658 c-23 -64 -35 -102 -34 -112 0 -6 11 18 23 54 l23 65 18
-29 c18 -27 18 -30 3 -57 -9 -16 -13 -31 -9 -33 5 -3 14 7 21 22 l12 27 11
-22 c5 -13 14 -23 19 -23 5 0 1 11 -7 24 -15 22 -15 27 0 55 8 17 11 31 6 31
-5 0 -13 -9 -16 -21 -7 -20 -7 -19 -30 5 -27 29 -34 31 -40 14z"/>
<path d="M1778 630 c14 -24 15 -33 5 -50 -7 -11 -13 -25 -13 -32 1 -7 8 0 16
16 l16 29 19 -29 c10 -16 19 -24 19 -19 0 6 -7 21 -16 34 -16 22 -16 26 0 55
l18 31 -20 -24 -20 -24 -13 21 c-21 33 -30 26 -11 -8z"/>
<path d="M1862 603 c3 -52 5 -58 26 -61 34 -5 52 15 52 57 0 44 -14 61 -52 61
-29 0 -29 0 -26 -57z m63 -3 c0 -39 -3 -45 -22 -48 -21 -3 -23 0 -23 48 0 48
2 51 23 48 19 -3 22 -9 22 -48z"/>
<path d="M1971 603 c1 -43 3 -52 9 -33 4 14 5 37 2 53 -4 24 -1 27 21 27 33 0
44 -17 24 -38 -14 -14 -14 -18 -1 -45 9 -16 18 -27 21 -24 2 3 -1 15 -7 27 -9
16 -9 25 -1 33 28 28 6 57 -45 57 -23 0 -24 -3 -23 -57z"/>
<path d="M2221 598 c1 -42 3 -55 8 -38 4 16 15 26 31 28 35 5 44 16 36 46 -5
22 -12 26 -41 26 l-35 0 1 -62z m64 27 c0 -14 -8 -21 -27 -23 -24 -3 -28 0
-28 23 0 23 4 26 28 23 19 -2 27 -9 27 -23z"/>
<path d="M2320 599 c0 -37 4 -58 10 -54 6 3 10 28 10 56 0 42 3 49 19 49 28 0
36 -18 17 -38 -14 -16 -13 -20 4 -47 21 -31 27 -27 10 5 -7 14 -7 25 1 38 19
31 4 52 -36 52 l-35 0 0 -61z"/>
</g>
</svg>
